<svg class="svg-icon" style="width: 1em; height: 1em;vertical-align: middle;fill:rgb(34, 187, 255);overflow: hidden;" viewBox="0 0 1024 1024" version="1.1" xmlns="http://www.w3.org/2000/svg"><path d="M402.285714 877.714286l54.857143-256-54.857143-73.142857-73.142857-36.571429zm146.285714 0l73.142857-365.714286-73.142857 36.571429-54.857143 73.142857zm91.428571-577.142857q-1.142857-2.285714-2.285714-3.428571-5.714286-4.571429-54.857143-4.571429-40 0-95.428571 10.857143-4 1.142857-12 1.142857t-12-1.142857q-55.428571-10.857143-95.428571-10.857143-49.142857 0-54.857143 4.571429-1.142857 1.142857-2.285714 3.428571 1.142857 10.285714 2.285714 15.428571 1.142857 1.714286 4.285714 3.714286t4.285714 6q1.142857 2.285714 4.285714 11.714286t4 11.714286 4.285714 9.714286 4.857143 9.714286 5.142857 8 6.857143 7.714286 8 5.428571 10 4.571429 11.714286 2.285714 14 1.142857q20.571429 0 33.714286-7.142857t18.571429-17.142857 8.285714-19.714286 6.571429-16.857143 10-7.142857l6.857143 0q6.285714 0 10 7.142857t6.571429 16.857143 8.285714 19.714286 18.571429 17.142857 33.714286 7.142857q7.428571 0 14-1.142857t11.714286-2.285714 10-4.571429 8-5.428571 6.857143-7.714286 5.142857-8 4.857143-9.714286 4.285714-9.714286 4-11.714286 4.285714-11.714286q1.142857-4 4.285714-6t4.285714-3.714286q1.142857-5.142857 2.285714-15.428571zm237.714286 502.285714q0 69.142857-41.714286 108.571429t-110.857143 39.428571l-499.428571 0q-69.142857 0-110.857143-39.428571t-41.714286-108.571429q0-34.857143 2.571429-67.428571t10.857143-71.714286 21.428571-70.571429 36.285714-59.142857 53.428571-42.571429l-51.428571-125.714286 122.285714 0q-12.571429-36.571429-12.571429-73.142857 0-6.857143 1.142857-18.285714-110.857143-22.857143-110.857143-54.857143 0-32.571429 120-56.571429 9.714286-35.428571 29.428571-76.571429t40.285714-65.142857q18.285714-21.142857 43.428571-21.142857 17.142857 0 48 17.714286t48 17.714286 48-17.714286 48-17.714286q25.142857 0 43.428571 21.142857 20.571429 24 40.285714 65.142857t29.428571 76.571429q120 24 120 56.571429 0 32-110.857143 54.857143 4 46.285714-11.428571 91.428571l122.285714 0-46.857143 128.571429q36 18.857143 61.428571 55.142857t37.428571 82 16.571429 86.571429 4.571429 84.857143z"  /></svg>